<?xml version="1.0" encoding="UTF-8" standalone="no"?>
<!DOCTYPE svg PUBLIC "-//W3C//DTD SVG 1.1//EN" "http://www.w3.org/Graphics/SVG/1.1/DTD/svg11.dtd">
<svg width="100%" height="100%" viewBox="0 0 200 200" version="1.1" xmlns="http://www.w3.org/2000/svg" xmlns:xlink="http://www.w3.org/1999/xlink" xml:space="preserve" xmlns:serif="http://www.serif.com/" style="fill-rule:evenodd;clip-rule:evenodd;stroke-linejoin:round;stroke-miterlimit:2;">
    <g transform="matrix(1,0,0,1,-153.733333,-150)">
        <g id="text">
        </g>
        <g id="icon" transform="matrix(1,0,0,1,-30.266667,-416.5)">
            <g transform="matrix(0.531665,0,0,0.531665,107.971878,479.838575)">
                <path d="M519.177,257.044L519.177,445.132C519.177,497.037 477.037,539.177 425.132,539.177L237.044,539.177C185.14,539.177 143,497.037 143,445.132L143,257.044C143,205.14 185.14,163 237.044,163L425.132,163C477.037,163 519.177,205.14 519.177,257.044Z" style="fill:rgb(0,202,214);"/>
            </g>
            <g transform="matrix(-0.374331,0,0,0.374331,419.320519,529.307829)">
                <path d="M255.276,358.303L324.432,396.722L240.59,507.904C237.179,512.428 237.469,518.738 241.281,522.93C245.093,527.121 251.348,528.007 256.174,525.039L469.174,394.039C472.741,391.846 474.876,387.925 474.783,383.739C474.69,379.553 472.384,375.731 468.724,373.697L399.553,335.269L482.419,225.084C485.821,220.56 485.527,214.257 481.719,210.07C477.911,205.883 471.664,204.994 466.839,207.953L254.839,337.953C251.267,340.143 249.127,344.065 249.217,348.253C249.307,352.442 251.614,356.268 255.276,358.303Z" style="fill:white;"/>
            </g>
        </g>
    </g>
</svg>
