<?xml version="1.0" encoding="UTF-8" standalone="no"?>
<!DOCTYPE svg PUBLIC "-//W3C//DTD SVG 1.1//EN" "http://www.w3.org/Graphics/SVG/1.1/DTD/svg11.dtd">
<svg width="100%" height="100%" viewBox="0 0 672 200" version="1.1" xmlns="http://www.w3.org/2000/svg" xmlns:xlink="http://www.w3.org/1999/xlink" xml:space="preserve" xmlns:serif="http://www.serif.com/" style="fill-rule:evenodd;clip-rule:evenodd;stroke-linejoin:round;stroke-miterlimit:2;">
    <g transform="matrix(1,0,0,1,-153.733333,-150)">
        <g id="text" transform="matrix(3.915935,0,0,3.915935,-526.450922,-1348.214326)">
            <path d="M237.521,419.725L237.521,414.679L249.173,401.532L237.62,401.532L237.62,396.486L256.111,396.486L256.111,401.532L244.459,414.679L256.012,414.679L256.012,419.725L237.521,419.725Z" style="fill:white;fill-rule:nonzero;"/>
            <path d="M263.116,426.763C262.408,426.763 261.661,426.63 260.875,426.364C260.09,426.099 259.431,425.811 258.9,425.501L260.826,421.285C261.135,421.506 261.44,421.672 261.738,421.783C262.037,421.894 262.308,421.949 262.552,421.949C262.972,421.949 263.349,421.844 263.681,421.633C264.013,421.423 264.278,421.086 264.477,420.621L264.942,419.459L257.307,403.126L263.05,403.126L267.299,413.649L271.316,403.126L277.059,403.126L269.723,420.721C269.236,421.916 268.727,422.967 268.195,423.874C267.664,424.782 267.006,425.49 266.22,425.999C265.435,426.508 264.4,426.763 263.116,426.763Z" style="fill:white;fill-rule:nonzero;"/>
            <rect x="278.819" y="396.486" width="5.179" height="23.238" style="fill:white;"/>
            <path d="M287.682,419.725L287.682,403.126L292.861,403.126L292.861,419.725L287.682,419.725ZM290.272,401.001C289.497,401.001 288.817,400.708 288.23,400.121C287.644,399.535 287.351,398.854 287.351,398.08C287.351,397.261 287.644,396.569 288.23,396.005C288.817,395.441 289.497,395.158 290.272,395.158C291.069,395.158 291.755,395.441 292.33,396.005C292.906,396.569 293.193,397.261 293.193,398.08C293.193,398.854 292.906,399.535 292.33,400.121C291.755,400.708 291.069,401.001 290.272,401.001Z" style="fill:white;fill-rule:nonzero;"/>
            <path d="M302.787,420.123C301.703,420.123 300.69,419.963 299.75,419.642C298.809,419.321 297.996,418.867 297.31,418.281C296.624,417.694 296.115,416.98 295.783,416.139L300.032,414.347C300.32,414.922 300.718,415.348 301.227,415.625C301.736,415.901 302.256,416.04 302.787,416.04C303.341,416.04 303.772,415.946 304.082,415.757C304.392,415.569 304.547,415.309 304.547,414.977C304.547,414.623 304.386,414.347 304.066,414.147C303.745,413.948 303.285,413.771 302.688,413.616L301.26,413.251C299.711,412.853 298.522,412.194 297.692,411.276C296.862,410.357 296.447,409.289 296.447,408.072C296.447,406.368 297.033,405.051 298.206,404.122C299.379,403.192 301.006,402.727 303.086,402.727C304.259,402.727 305.294,402.882 306.19,403.192C307.087,403.502 307.839,403.939 308.448,404.503C309.056,405.068 309.493,405.726 309.759,406.479L305.642,408.172C305.488,407.729 305.172,407.392 304.696,407.159C304.22,406.927 303.695,406.811 303.119,406.811C302.633,406.811 302.256,406.916 301.991,407.126C301.725,407.336 301.592,407.619 301.592,407.973C301.592,408.238 301.753,408.465 302.074,408.653C302.395,408.841 302.865,409.013 303.485,409.168L305.244,409.599C306.284,409.865 307.158,410.269 307.867,410.811C308.575,411.353 309.106,411.984 309.46,412.703C309.814,413.423 309.991,414.192 309.991,415.011C309.991,416.051 309.687,416.953 309.078,417.716C308.47,418.48 307.623,419.072 306.539,419.492C305.454,419.913 304.204,420.123 302.787,420.123Z" style="fill:white;fill-rule:nonzero;"/>
            <path d="M315.203,420.223C314.362,420.223 313.643,419.924 313.046,419.326C312.448,418.729 312.149,418.009 312.149,417.168C312.149,416.35 312.448,415.641 313.046,415.044C313.643,414.446 314.362,414.147 315.203,414.147C316.022,414.147 316.73,414.446 317.328,415.044C317.926,415.641 318.224,416.35 318.224,417.168C318.224,418.009 317.926,418.729 317.328,419.326C316.73,419.924 316.022,420.223 315.203,420.223Z" style="fill:rgb(0,202,214);fill-rule:nonzero;"/>
            <path d="M326.657,420.123C324.687,420.123 323.16,419.68 322.075,418.795C320.991,417.91 320.449,416.659 320.449,415.044C320.449,413.295 321.013,411.99 322.142,411.126C323.27,410.263 324.853,409.832 326.889,409.832L330.939,409.832C330.828,408.946 330.568,408.255 330.159,407.757C329.749,407.259 329.091,407.01 328.184,407.01C327.564,407.01 327.022,407.154 326.557,407.441C326.092,407.729 325.694,408.128 325.362,408.637L320.847,407.143C321.223,406.324 321.738,405.582 322.391,404.918C323.044,404.254 323.846,403.723 324.798,403.325C325.749,402.927 326.856,402.727 328.117,402.727C329.844,402.727 331.304,403.048 332.499,403.69C333.694,404.332 334.591,405.228 335.188,406.379C335.786,407.53 336.085,408.891 336.085,410.462L336.018,419.725L331.171,419.725L331.105,418.032C330.662,418.718 330.065,419.238 329.312,419.592C328.56,419.946 327.675,420.123 326.657,420.123ZM327.785,416.206C328.427,416.206 328.991,416.073 329.478,415.807C329.965,415.542 330.347,415.182 330.624,414.728C330.9,414.275 331.039,413.782 331.039,413.251L331.039,413.151L328.848,413.151C327.741,413.151 326.944,413.306 326.457,413.616C325.97,413.926 325.727,414.358 325.727,414.911C325.727,415.309 325.91,415.625 326.275,415.857C326.64,416.089 327.143,416.206 327.785,416.206Z" style="fill:rgb(0,202,214);fill-rule:nonzero;"/>
            <path d="M339.537,419.725L339.537,403.126L344.716,403.126L344.716,419.725L339.537,419.725ZM342.127,401.001C341.352,401.001 340.672,400.708 340.085,400.121C339.499,399.535 339.205,398.854 339.205,398.08C339.205,397.261 339.499,396.569 340.085,396.005C340.672,395.441 341.352,395.158 342.127,395.158C342.923,395.158 343.61,395.441 344.185,396.005C344.76,396.569 345.048,397.261 345.048,398.08C345.048,398.854 344.76,399.535 344.185,400.121C343.61,400.708 342.923,401.001 342.127,401.001Z" style="fill:rgb(0,202,214);fill-rule:nonzero;"/>
        </g>
        <g id="icon" transform="matrix(1,0,0,1,-30.266667,-416.5)">
            <g transform="matrix(0.531665,0,0,0.531665,107.971878,479.838575)">
                <path d="M519.177,257.044L519.177,445.132C519.177,497.037 477.037,539.177 425.132,539.177L237.044,539.177C185.14,539.177 143,497.037 143,445.132L143,257.044C143,205.14 185.14,163 237.044,163L425.132,163C477.037,163 519.177,205.14 519.177,257.044Z" style="fill:rgb(0,202,214);"/>
            </g>
            <g transform="matrix(-0.374331,0,0,0.374331,419.320519,529.307829)">
                <path d="M255.276,358.303L324.432,396.722L240.59,507.904C237.179,512.428 237.469,518.738 241.281,522.93C245.093,527.121 251.348,528.007 256.174,525.039L469.174,394.039C472.741,391.846 474.876,387.925 474.783,383.739C474.69,379.553 472.384,375.731 468.724,373.697L399.553,335.269L482.419,225.084C485.821,220.56 485.527,214.257 481.719,210.07C477.911,205.883 471.664,204.994 466.839,207.953L254.839,337.953C251.267,340.143 249.127,344.065 249.217,348.253C249.307,352.442 251.614,356.268 255.276,358.303Z" style="fill:white;"/>
            </g>
        </g>
    </g>
</svg>
